# xmcd CD database file
#
# Track frame offsets:
#	150
#	13102
#	23875
#	37065
#	46447
#	58562
#	71525
#	83242
#	98745
#	111555
#	119760
#	130820
#
# Disc length: 2179 seconds
#
# Revision: 1
# Processed by: cddbd v1.4b41PL3 Copyright (c) Steve Scherf et al.
# Submitted via: CD2WAV32(EN) R3.18
#
DISCID=aa08810c
DTITLE=supremes - 'IN PERSON' An Evening With The Supremes
DYEAR=1900
DGENRE=
TTITLE0=Introduction By Scott Regan-Where Did Our Love Go?
TTITLE1=Baby Love
TTITLE2=Come See About Me
TTITLE3=Stop! In The Name Of Love
TTITLE4=Back In My Arms Again
TTITLE5=Nothing But Heartaches
TTITLE6=I Hear A Symphony
TTITLE7=Introductions
TTITLE8=You Can't Hurry Love
TTITLE9=You Keep Me Hangin' On
TTITLE10=Reflections
TTITLE11=Someday We'll Be Together
EXTD=
EXTT0=
EXTT1=
EXTT2=
EXTT3=
EXTT4=
EXTT5=
EXTT6=
EXTT7=
EXTT8=
EXTT9=
EXTT10=
EXTT11=
PLAYORDER=
